<?xml version="1.0" encoding="UTF-8"?>
<svg width="50px" height="40px" viewBox="0 0 50 40" version="1.1" xmlns="http://www.w3.org/2000/svg" xmlns:xlink="http://www.w3.org/1999/xlink">
    <!-- Generator: Sketch 50.2 (55047) - http://www.bohemiancoding.com/sketch -->
    <title>code</title>
    <desc>Created with Sketch.</desc>
    <defs></defs>
    <g id="Page-1" stroke="none" stroke-width="1" fill="none" fill-rule="evenodd">
        <g id="code" fill="#666666" fill-rule="nonzero">
            <path d="M21.7893133,39.9610389 L17.0240606,38.5781224 C16.5240997,38.4374868 16.2428717,37.9140099 16.3834857,37.4139723 L27.0467151,0.67683417 C27.1873291,0.17679656 27.7107257,-0.1044746 28.2106867,0.03616098 L32.9759394,1.41907749 C33.4759003,1.55971307 33.7571283,2.08318994 33.6165143,2.58322755 L22.9532849,39.3203657 C22.804859,39.8204033 22.2892743,40.1094876 21.7893133,39.9610389 Z M12.8837591,31.1947546 L16.2819311,27.5694819 C16.641278,27.1866406 16.6178424,26.5772197 16.219436,26.2256308 L9.14186392,19.9985999 L16.219436,13.7715691 C16.6178424,13.4199801 16.6490899,12.8105593 16.2819311,12.427718 L12.8837591,8.80244533 C12.532224,8.42741712 11.9385204,8.40397786 11.5557378,8.76337989 L0.29880478,19.3110482 C-0.09960159,19.6782633 -0.09960159,20.3111234 0.29880478,20.6783386 L11.5557378,31.23382 C11.9385204,31.593222 12.532224,31.5775958 12.8837591,31.1947546 Z M38.4442622,31.2416331 L49.7011952,20.6861517 C50.0996016,20.3189365 50.0996016,19.6860764 49.7011952,19.3188613 L38.4442622,8.7555668 C38.0692915,8.40397786 37.4755878,8.41960403 37.1162409,8.79463224 L33.7180689,12.4199049 C33.358722,12.8027462 33.3821576,13.412167 33.780564,13.763756 L40.8581361,19.9985999 L33.780564,26.2256308 C33.3821576,26.5772197 33.3509101,27.1866406 33.7180689,27.5694819 L37.1162409,31.1947546 C37.467776,31.5775958 38.0614796,31.593222 38.4442622,31.2416331 Z" id="Shape"></path>
            <path d="M21.7893133,39.9610389 L17.0240606,38.5781224 C16.5240997,38.4374868 16.2428717,37.9140099 16.3834857,37.4139723 L27.0467151,0.67683417 C27.1873291,0.17679656 27.7107257,-0.1044746 28.2106867,0.03616098 L32.9759394,1.41907749 C33.4759003,1.55971307 33.7571283,2.08318994 33.6165143,2.58322755 L22.9532849,39.3203657 C22.804859,39.8204033 22.2892743,40.1094876 21.7893133,39.9610389 Z M12.8837591,31.1947546 L16.2819311,27.5694819 C16.641278,27.1866406 16.6178424,26.5772197 16.219436,26.2256308 L9.14186392,19.9985999 L16.219436,13.7715691 C16.6178424,13.4199801 16.6490899,12.8105593 16.2819311,12.427718 L12.8837591,8.80244533 C12.532224,8.42741712 11.9385204,8.40397786 11.5557378,8.76337989 L0.29880478,19.3110482 C-0.09960159,19.6782633 -0.09960159,20.3111234 0.29880478,20.6783386 L11.5557378,31.23382 C11.9385204,31.593222 12.532224,31.5775958 12.8837591,31.1947546 Z M38.4442622,31.2416331 L49.7011952,20.6861517 C50.0996016,20.3189365 50.0996016,19.6860764 49.7011952,19.3188613 L38.4442622,8.7555668 C38.0692915,8.40397786 37.4755878,8.41960403 37.1162409,8.79463224 L33.7180689,12.4199049 C33.358722,12.8027462 33.3821576,13.412167 33.780564,13.763756 L40.8581361,19.9985999 L33.780564,26.2256308 C33.3821576,26.5772197 33.3509101,27.1866406 33.7180689,27.5694819 L37.1162409,31.1947546 C37.467776,31.5775958 38.0614796,31.593222 38.4442622,31.2416331 Z" id="Shape"></path>
        </g>
    </g>
</svg>