<?xml version="1.0" encoding="UTF-8"?>
<svg width="16px" height="15px" viewBox="0 0 16 15" version="1.1" xmlns="http://www.w3.org/2000/svg" xmlns:xlink="http://www.w3.org/1999/xlink">
    <!-- Generator: sketchtool 54.1 (76490) - https://sketchapp.com -->
    <title>ADDA8262-A7D8-451F-8120-CC05B43B1EF1</title>
    <desc>Created with sketchtool.</desc>
    <g id="Room" stroke="none" stroke-width="1" fill="none" fill-rule="evenodd">
        <g id="Flowroom-Room---Play-Mode-v0.2" transform="translate(-790.000000, -772.000000)" fill="#FAFAFA" fill-rule="nonzero">
            <path d="M798.076923,784.722513 C799.666675,783.269626 800.782048,782.215972 801.423077,781.561518 C802.423082,780.540571 803.160254,779.650527 803.634615,778.891361 C804.160259,778.040572 804.423077,777.235606 804.423077,776.47644 C804.423077,775.939788 804.301283,775.4555 804.057692,775.02356 C803.814101,774.591621 803.480771,774.254582 803.057692,774.012435 C802.634613,773.770287 802.153849,773.649215 801.615385,773.649215 C800.987176,773.649215 800.407054,773.829187 799.875,774.189136 C799.342946,774.549086 798.96795,775.010468 798.75,775.573298 L797.25,775.573298 C797.044871,775.010468 796.67308,774.549086 796.134615,774.189136 C795.596151,773.829187 795.019234,773.649215 794.403846,773.649215 C793.865382,773.649215 793.381412,773.770287 792.951923,774.012435 C792.522434,774.254582 792.185899,774.591621 791.942308,775.02356 C791.698717,775.4555 791.576923,775.939788 791.576923,776.47644 C791.576923,777.235606 791.839741,778.040572 792.365385,778.891361 C792.839746,779.650527 793.576918,780.540571 794.576923,781.561518 C795.217952,782.215972 796.333325,783.269626 797.923077,784.722513 L798,784.801047 L798.076923,784.722513 Z M801.615385,772 C802.423081,772 803.163458,772.196333 803.836538,772.589005 C804.509619,772.981677 805.03846,773.521593 805.423077,774.20877 C805.807694,774.895946 806,775.651828 806,776.47644 C806,777.45812 805.717952,778.452875 805.153846,779.460733 C804.653844,780.337701 803.85898,781.339 802.769231,782.46466 C802.115381,783.145291 800.916675,784.297112 799.173077,785.920157 L798,787 L796.846154,785.959424 C795.128197,784.362557 793.92308,783.204192 793.230769,782.484293 C792.14102,781.358633 791.352567,780.357334 790.865385,779.480366 C790.288459,778.472508 790,777.471209 790,776.47644 C790,775.651828 790.195511,774.895946 790.586538,774.20877 C790.977566,773.521593 791.506407,772.981677 792.173077,772.589005 C792.839747,772.196333 793.583329,772 794.403846,772 C795.083337,772 795.743587,772.157066 796.384615,772.471204 C797.025644,772.785342 797.5641,773.204186 798,773.727749 C798.4359,773.204186 798.974356,772.785342 799.615385,772.471204 C800.256413,772.157066 800.923073,772 801.615385,772 Z" id="î¤"></path>
        </g>
    </g>
</svg>