<?xml version="1.0" encoding="UTF-8"?>
<svg width="52px" height="20px" viewBox="0 0 52 20" version="1.1" xmlns="http://www.w3.org/2000/svg" xmlns:xlink="http://www.w3.org/1999/xlink">
    <!-- Generator: Sketch 50.2 (55047) - http://www.bohemiancoding.com/sketch -->
    <title>remix_icon</title>
    <desc>Created with Sketch.</desc>
    <defs>
        <polygon id="path-1" points="0 0 52 0 52 20 0 20"></polygon>
    </defs>
    <g id="Page-1" stroke="none" stroke-width="1" fill="none" fill-rule="evenodd">
        <g id="remix_icon">
            <mask id="mask-2" fill="white">
                <use xlink:href="#path-1"></use>
            </mask>
            <g id="Shape"></g>
            <path d="M45.8745976,13.3016377 C44.1937374,15.4305791 41.1629468,16.4855863 38.2632172,15.7257007 C36.8452986,15.354871 35.4355712,14.7414947 34.2560202,13.9738981 C32.475226,12.8144417 30.8983956,11.4236549 29.1110482,10.035672 C31.9550766,7.62002104 34.4550696,5.16301098 38.304993,4.29026419 C41.2899122,3.6130968 44.1765358,4.44097949 45.7853122,6.41009255 C47.432588,8.42617271 47.470268,11.2813516 45.8745976,13.3016377 M16.2506657,14.7919668 C14.3863198,15.9163731 12.1713851,16.2528538 9.91795121,15.7628538 C6.28182141,14.9721242 4.17583139,11.7327965 5.15305663,8.55585797 C6.13519667,5.36489941 9.87289893,3.35162325 13.5557193,4.25241012 C15.1440175,4.64076491 16.691359,5.38592944 18.0298218,6.23203819 C19.7196924,7.29966339 21.1785676,8.63717415 23.0912424,10.1345132 C20.6887264,11.7867736 18.5598006,13.3990769 16.2506657,14.7919668 M38.2738658,0.213239791 C34.2158828,0.846945099 31.1941024,2.9303214 28.3525314,5.26816119 C27.5735362,5.90957752 26.9804842,6.71783218 26.4259314,7.31578642 C23.786686,5.39574346 21.6716854,3.68529995 19.3510827,2.21109391 C15.9828093,0.0709365018 12.1943208,-0.575386818 8.11585941,0.534999469 C3.09867197,1.90055027 -0.099221871,5.81494233 0.00235056903,10.4296348 C0.098189089,14.8333259 3.23546711,18.4869454 7.99954257,19.5861157 C12.4531667,20.6130828 16.4972246,19.6807509 20.075196,17.323283 C22.144325,15.9605362 24.0348832,14.400107 25.9876954,12.942024 C28.1108872,14.5206792 30.1144856,16.1568166 32.2941976,17.5966736 C35.433933,19.6702359 39.0004366,20.4749854 42.9502942,19.6926679 C49.3256034,18.4294633 53.1222832,13.1256864 51.7035456,7.46369772 C50.4003056,2.26156602 44.6991424,-0.790594272 38.2738658,0.213239791" id="Shape" fill="#666666" mask="url(#mask-2)"></path>
        </g>
    </g>
</svg>