<?xml version="1.0" encoding="UTF-8"?>
<svg width="450px" height="103px" viewBox="0 0 450 103" version="1.1" xmlns="http://www.w3.org/2000/svg" xmlns:xlink="http://www.w3.org/1999/xlink">
    <!-- Generator: Sketch 53.2 (72643) - https://sketchapp.com -->
    <title>Logo on Dark Background</title>
    <desc>Created with Sketch.</desc>
    <defs>
        <polygon id="path-1" points="0.336420696 0.546428571 11.4556743 0.546428571 11.4556743 66.8697429 0.336420696 66.8697429"></polygon>
        <polygon id="path-3" points="0.000244274809 0.889585714 36.2384122 0.889585714 36.2384122 68 0.000244274809 68"></polygon>
    </defs>
    <g id="Logo-on-Dark-Background" stroke="none" stroke-width="1" fill="none" fill-rule="evenodd">
        <rect fill="#0F0F0F" x="0" y="0" width="450" height="103"></rect>
        <g id="Group-17" transform="translate(25.000000, 16.000000)">
            <g id="Group-3" transform="translate(41.730280, 0.000000)">
                <mask id="mask-2" fill="white">
                    <use xlink:href="#path-1"></use>
                </mask>
                <g id="Clip-2"></g>
                <path d="M10.2563528,0.545457143 L1.53574215,0.545457143 C0.875521628,0.545457143 0.336420696,1.09674286 0.336420696,1.77188571 L0.336420696,65.6433143 C0.336420696,66.3208857 0.875521628,66.8697429 1.53574215,66.8697429 L10.2563528,66.8697429 C10.9189483,66.8697429 11.4556743,66.3208857 11.4556743,65.6433143 L11.4556743,1.77188571 C11.4556743,1.09674286 10.9189483,0.545457143 10.2563528,0.545457143" id="Fill-1" fill="#FFFFFF" mask="url(#mask-2)"></path>
            </g>
            <path d="M96.9700473,52.4009524 C95.6750908,53.7510599 94.2259728,54.7605552 92.6203216,55.4343748 C91.0146704,56.1081944 89.318894,56.4463383 87.5329925,56.4463383 C85.7423475,56.4463383 84.0299691,56.1081944 82.3958573,55.4343748 C80.7617455,54.7605552 79.3268578,53.7510599 78.0935659,52.4009524 C75.5012812,49.705674 74.2063246,46.4649225 74.2063246,42.6762297 C74.2063246,38.8233637 75.5012812,35.5505256 78.0935659,32.8527789 C80.6858506,30.1575004 83.830745,28.807393 87.5329925,28.807393 C91.1071673,28.807393 94.2544334,30.1575004 96.9700473,32.8527789 C99.5623321,35.5505256 100.857289,38.8233637 100.857289,42.6762297 C100.857289,46.4649225 99.5623321,49.705674 96.9700473,52.4009524 M104.834655,24.6706835 C102.61473,22.3579767 100.022445,20.5463151 97.0625442,19.2282943 C94.1002719,17.9127417 90.9221735,17.2537313 87.5329925,17.2537313 C84.139068,17.2537313 80.9633413,17.9127417 78.001069,19.2282943 C75.0411684,20.5463151 72.4488837,22.3579767 70.2289582,24.6706835 C68.0066611,26.978454 66.2658221,29.6762007 65.0016979,32.756519 C63.7352019,35.8393054 63.1043257,39.1466984 63.1043257,42.6762297 C63.1043257,46.144056 63.7352019,49.4168941 65.0016979,52.4972124 C66.2658221,55.5799988 68.0066611,58.2752773 70.2289582,60.585516 C72.4488837,62.8982229 75.0411684,64.7123526 78.001069,66.0279052 C80.9633413,67.3434578 84.139068,68 87.5329925,68 C90.9221735,68 94.1002719,67.3434578 97.0625442,66.0279052 C100.022445,64.7123526 102.61473,62.8982229 104.834655,60.585516 C107.056952,58.2752773 108.797791,55.5799988 110.064287,52.4972124 C111.328411,49.4168941 111.959288,46.144056 111.959288,42.6762297 C111.959288,39.1466984 111.328411,35.8393054 110.064287,32.756519 C108.797791,29.6762007 107.056952,26.978454 104.834655,24.6706835" id="Fill-4" fill="#FFFFFF"></path>
            <path d="M184.027047,17.2537367 L174.786134,17.2708165 C174.264876,17.2708165 173.798867,17.6124129 173.635524,18.1174874 L165.175295,44.4667642 C164.812577,45.598912 163.239196,45.601352 162.869271,44.4716441 L154.31536,18.154087 C154.149615,17.6490125 153.686008,17.3074162 153.159946,17.3074162 L143.018242,17.3269359 C142.49218,17.3269359 142.028573,17.6709722 141.865229,18.1784868 L133.405001,44.5253235 C133.039881,45.6574714 131.466499,45.6599113 131.101379,44.5302035 L122.545066,18.2150864 C122.381723,17.7075718 121.918116,17.3659755 121.392054,17.3684155 L112.153543,17.3854953 C111.322413,17.3854953 110.7387,18.2150864 111.007737,19.0129578 L126.104992,64.1183129 C126.27314,64.6185075 126.734344,64.9552239 127.255602,64.9552239 L137.315635,64.9357041 C137.836892,64.9332641 138.302902,64.5916678 138.466245,64.0841532 L146.926473,37.8227156 C147.291594,36.6905678 148.862573,36.6881278 149.232498,37.8178356 L157.784006,64.0524336 C157.949751,64.5575082 158.415761,64.8966645 158.93942,64.8942245 L169.093135,64.8771447 C169.611991,64.8771447 170.073196,64.5379884 170.241343,64.0377937 L185.177657,18.8763193 C185.441889,18.0784479 184.855775,17.2512968 184.027047,17.2537367" id="Fill-6" fill="#FFFFFF"></path>
            <path d="M221.57909,17.255586 C219.214902,17.3791233 217.07058,17.8281337 215.143655,18.6121202 C213.641641,19.2226794 212.243385,19.9401458 210.951357,20.7645195 C210.123768,21.2919285 209.021962,20.7193808 209.021962,19.7667185 L209.021962,19.7192042 C209.021962,19.0587549 208.463648,18.5194673 207.774402,18.5194673 L198.703031,18.5194673 C198.016255,18.5194673 197.455471,19.0587549 197.455471,19.7192042 L197.455471,41.692207 L197.455471,63.755487 C197.455471,64.4206876 198.016255,64.9552239 198.703031,64.9552239 L207.774402,64.9552239 C208.463648,64.9552239 209.021962,64.4206876 209.021962,63.755487 L209.021962,41.692207 C209.021962,38.1072506 210.37081,34.9570504 213.070975,32.2392306 C215.494454,29.9062769 218.387312,28.6210142 221.747079,28.3858183 C222.396798,28.3406797 222.900763,27.8203978 222.900763,27.1955843 L222.900763,18.4576986 C222.900763,17.7687408 222.295511,17.2175746 221.57909,17.255586" id="Fill-8" fill="#40FFE8"></path>
            <path d="M399.056582,28.8549969 C398.425218,26.5666194 397.48422,24.5541792 396.223911,22.822434 C394.966021,21.08831 393.347697,19.7276531 391.364101,18.7380844 C389.382924,17.7485157 387.070341,17.2537313 384.426353,17.2537313 C381.218734,17.2537313 378.260273,17.8555604 375.555809,19.063976 C373.327892,20.0559234 371.443476,21.2500664 369.897723,22.6392686 C369.380053,23.1055077 368.576938,23.0531748 368.131839,22.5179513 C366.893301,21.0312195 365.531393,19.832319 364.041277,18.9236285 C362.217336,17.8103637 359.89024,17.2537313 357.059987,17.2537313 C354.982049,17.2537313 352.937978,17.7651671 350.925354,18.7856598 C349.606988,19.4517156 348.329746,20.2319525 347.096046,21.1239916 C346.295351,21.7020329 345.168088,21.1216128 345.168088,20.1463167 L345.168088,19.7538195 C345.168088,19.0925212 344.61897,18.5525402 343.946483,18.5525402 L335.063844,18.5525402 C334.388938,18.5525402 333.842239,19.0925212 333.842239,19.7538195 L333.842239,63.7539446 C333.842239,64.4176217 334.388938,64.9552239 335.063844,64.9552239 L343.946483,64.9552239 C344.61897,64.9552239 345.168088,64.4176217 345.168088,63.7539446 L345.168088,36.2791409 C345.168088,34.1144594 345.95185,32.2590181 347.526632,30.7104382 C349.0361,29.1642372 350.954382,28.3911366 353.283898,28.3911366 C354.353104,28.3911366 355.373931,28.5766808 356.351214,28.947769 C357.32366,29.3164785 358.189669,29.9064137 358.946822,30.7104382 C360.516766,32.2590181 361.305366,34.1144594 361.305366,36.2791409 L361.305366,63.7539446 C361.305366,64.4176217 361.852064,64.9552239 362.524552,64.9552239 L371.407191,64.9552239 C372.084516,64.9552239 372.628796,64.4176217 372.628796,63.7539446 L372.628796,36.2791409 C372.628796,34.1144594 373.414977,32.2590181 374.989759,30.7104382 C376.499227,29.1642372 378.386062,28.3911366 380.652683,28.3911366 C382.916885,28.3911366 384.80372,29.1642372 386.313188,30.7104382 C387.88797,32.2590181 388.674151,34.1144594 388.674151,36.2791409 L388.674151,63.7539446 C388.674151,64.4176217 389.223269,64.9552239 389.895756,64.9552239 L398.778395,64.9552239 C399.450883,64.9552239 400,64.4176217 400,63.7539446 L400,36.2791409 C400,33.619675 399.683108,31.1433745 399.056582,28.8549969" id="Fill-10" fill="#40FFE8"></path>
            <path d="M299.370897,19.7706981 C291.588361,21.2170245 285.719524,25.8997824 280.339958,31.3118425 C279.060142,32.6034684 270.24604,42.4281745 270.24604,42.4281745 C265.640148,46.1999187 261.55727,49.8832627 257.127322,53.0632163 C253.550585,55.6317348 249.303813,56.3978703 244.982324,55.2805893 C238.004795,53.4757508 233.96289,46.0771406 235.840436,38.8234086 C237.725212,31.5352987 244.893147,26.9384854 251.957443,28.9937914 C255.006346,29.8802495 257.970892,31.5844099 260.540165,33.5144822 C262.76478,35.1891759 263.948188,36.3040013 266.180033,38.4771742 L272.755059,32.4512235 C269.03612,29.1435807 266.592177,26.9925078 263.073285,24.3306779 C256.613949,19.4441083 249.344786,17.9707707 241.523687,20.5049113 C231.899759,23.6234759 225.7658,32.5641794 225.958616,43.1009987 C226.144201,53.1565277 232.162471,61.5005295 241.299539,64.0101145 C249.841287,66.3551768 257.599721,64.226204 264.463971,58.8436107 C268.185319,55.9264023 271.607803,52.6138483 275.109824,49.4682726 L275.107414,49.4633615 L281.817411,42.2219073 C281.80777,42.2145406 281.802949,42.2071739 281.793309,42.1998072 C287.250001,36.6870691 292.043889,31.0761085 299.428742,29.0797361 C305.155377,27.5327316 310.691606,29.4259704 313.779073,33.9221056 C316.938845,38.5262855 317.008741,45.0458043 313.950197,49.6598065 C310.725349,54.5193649 304.911947,56.9307274 299.349205,55.1946446 C296.6305,54.3474755 293.926255,52.9478048 291.665488,51.1945331 C288.934731,49.0802937 288.430999,48.6481147 285.796651,46.1287074 L279.575925,52.4665146 C282.998409,55.5605235 284.33848,56.6655267 287.900755,59.4673236 C293.921435,64.2016484 300.763993,66.0408648 308.341661,64.2532152 C320.571016,61.3679291 327.85223,49.2595498 325.131114,36.3261014 C322.631737,24.4460894 311.69425,17.4772026 299.370897,19.7706981" id="Fill-12" fill="#40FFE8"></path>
            <g id="Group-16">
                <mask id="mask-4" fill="white">
                    <use xlink:href="#path-3"></use>
                </mask>
                <g id="Clip-15"></g>
                <path d="M31.6436031,29.9255857 L20.3092519,29.9255857 L20.3092519,68.0007286 L7.21367939,68.0007286 L7.21367939,29.9255857 L0.000244274809,29.9255857 L0.000244274809,23.6307286 L7.21367939,20.1190143 L7.21367939,16.6073 C7.21367939,11.1551571 8.55963359,7.16987143 11.2490992,4.65872857 C13.9410076,2.14758571 18.2500153,0.889585714 24.1736794,0.889585714 C28.6976489,0.889585714 32.7159695,1.55987143 36.2384122,2.90044286 L32.8894046,12.4957286 C30.2585649,11.6651571 27.8255878,11.2547286 25.5904733,11.2547286 C23.731542,11.2547286 22.3855878,11.8035857 21.5550534,12.9013 C20.7245191,14.0014429 20.3092519,15.4051571 20.3092519,17.1221571 L20.3092519,20.1190143 L31.6436031,20.1190143 L31.6436031,29.9255857 Z" id="Fill-14" fill="#FFFFFF" mask="url(#mask-4)"></path>
            </g>
        </g>
    </g>
</svg>