<?xml version="1.0" encoding="UTF-8"?>
<svg width="23px" height="23px" viewBox="0 0 23 23" version="1.1" xmlns="http://www.w3.org/2000/svg" xmlns:xlink="http://www.w3.org/1999/xlink">
    <!-- Generator: Sketch 50.2 (55047) - http://www.bohemiancoding.com/sketch -->
    <title>Overlay3</title>
    <desc>Created with Sketch.</desc>
    <defs></defs>
    <g id="Elements" stroke="none" stroke-width="1" fill="none" fill-rule="evenodd">
        <g id="Overlay3" transform="translate(0.000000, 1.000000)">
            <polygon id="Triangle" stroke="#979797" stroke-width="0.8" fill="#979797" points="4.5 1 8 8 1 8"></polygon>
            <text id="T" font-family="AmericanTypewriter, American Typewriter" font-size="13" font-weight="normal" fill="#979797">
                <tspan x="13" y="21">T</tspan>
            </text>
            <g id="happiness" transform="translate(13.000000, 0.000000)">
                <circle id="Oval-5" stroke="#979797" fill="#979797" cx="4.5" cy="4.5" r="4.5"></circle>
                <circle id="Oval" fill="#FFFFFF" fill-rule="nonzero" cx="2.5" cy="3.5" r="1"></circle>
                <circle id="Oval" fill="#FFFFFF" fill-rule="nonzero" cx="6.5" cy="3.5" r="1"></circle>
                <path d="M4.49084983,7 C5.49167755,7 6.45082836,6.37673485 7,5.34190996 L6.56548027,5 C6.06118648,5.95025297 5.13876567,6.48055988 4.2151162,6.35078843 C3.49532469,6.24971947 2.82969051,5.74472902 2.4344874,5 L2,5.34190996 C2.47820126,6.24310491 3.28412721,6.85416462 4.15581795,6.97661279 C4.26772158,6.99232238 4.37946354,7 4.49084983,7 Z" id="Shape" fill="#FFFFFF" fill-rule="nonzero"></path>
            </g>
            <g id="iconmonstr-favorite-3" transform="translate(0.000000, 12.000000)" fill="#979797" fill-rule="nonzero">
                <path d="M5,1.32878377 C3.68833333,-0.88110905 0,-0.235977438 0,2.53313853 C0,4.43989722 2.32125,6.38961013 5,9 C7.67916667,6.38961013 10,4.43989722 10,2.53313853 C10,-0.245386459 6.30208333,-0.864745534 5,1.32878377 Z" id="Shape" style="mix-blend-mode: lighten;"></path>
            </g>
        </g>
    </g>
</svg>