<?xml version="1.0" encoding="UTF-8"?>
<svg width="26px" height="10px" viewBox="0 0 26 10" version="1.1" xmlns="http://www.w3.org/2000/svg" xmlns:xlink="http://www.w3.org/1999/xlink">
    <!-- Generator: Sketch 53.2 (72643) - https://sketchapp.com -->
    <title>Group 3</title>
    <desc>Created with Sketch.</desc>
    <defs>
        <polygon id="path-1" points="0 0 26 0 26 9.9047619 0 9.9047619"></polygon>
    </defs>
    <g id="Room" stroke="none" stroke-width="1" fill="none" fill-rule="evenodd">
        <g id="Flowroom-Room-v0.2" transform="translate(-16.000000, -95.000000)">
            <g id="Group-3" transform="translate(16.000000, 95.000000)">
                <mask id="mask-2" fill="white">
                    <use xlink:href="#path-1"></use>
                </mask>
                <g id="Clip-2"></g>
                <path d="M22.9372988,6.58747775 C22.0968687,7.64181062 20.5814734,8.16429037 19.1316086,7.78796609 C18.4226493,7.60431706 17.7177856,7.30054977 17.1280101,6.9204067 C16.237613,6.34619973 15.4491978,5.65742909 14.5555241,4.9700471 C15.9775383,3.77372471 17.2275348,2.55691973 19.1524965,2.12470227 C20.6449561,1.78934318 22.0882679,2.19934223 22.8926561,3.17452203 C23.716294,4.17296173 23.735134,5.58695508 22.9372988,6.58747775 M8.12533283,7.32554548 C7.19315988,7.88239432 6.08569255,8.04903238 4.9589756,7.8063657 C3.1409107,7.41476627 2.08791569,5.8105278 2.57652831,4.23718681 C3.06759833,2.65690257 4.93644946,1.65985152 6.77785964,2.10595549 C7.57200873,2.29828358 8.34567951,2.66731744 9.01491088,3.08634273 C9.8598462,3.6150714 10.5892838,4.27745768 11.5456212,5.01899703 C10.3443632,5.83725933 9.27990029,6.63573335 8.12533283,7.32554548 M19.1369329,0.105604474 C17.1079414,0.419439482 15.5970512,1.45120679 14.1762657,2.60899412 C13.7867681,2.92664792 13.4902421,3.32692642 13.2129657,3.62305614 C11.893343,2.67217772 10.8358427,1.82510093 9.67554136,1.09501794 C7.99140464,0.0351304623 6.09716041,-0.284953473 4.0579297,0.264952117 C1.54933598,0.9412249 -0.0496109391,2.87978097 0.00117528469,5.16515249 C0.0490945443,7.34602807 1.61773355,9.15543964 3.99977128,9.69979063 C6.22658337,10.2083839 8.24861229,9.74665759 10.037598,8.5791497 C11.0721625,7.90426556 12.0174416,7.13148157 12.9938477,6.40938332 C14.0554436,7.19119354 15.0572428,8.0014711 16.1470988,8.71454312 C17.7169665,9.74145015 19.5002183,10.1399928 21.4751471,9.75255935 C24.6628017,9.12697231 26.5611416,6.50033993 25.8517728,3.69630745 C25.2001528,1.12001365 22.3495712,-0.391532397 19.1369329,0.105604474" id="Fill-1" fill="#40FFE8" mask="url(#mask-2)"></path>
            </g>
        </g>
    </g>
</svg>