<?xml version="1.0" encoding="UTF-8"?>
<svg width="50px" height="50px" viewBox="0 0 50 50" version="1.1" xmlns="http://www.w3.org/2000/svg" xmlns:xlink="http://www.w3.org/1999/xlink">
    <!-- Generator: Sketch 50.2 (55047) - http://www.bohemiancoding.com/sketch -->
    <title>save-regular</title>
    <desc>Created with Sketch.</desc>
    <defs></defs>
    <g id="Icons" stroke="none" stroke-width="1" fill="none" fill-rule="evenodd">
        <g id="save-regular" fill="#40FFE8" fill-rule="nonzero">
            <path d="M48.4309152,10.9309152 L39.0690848,1.56908482 C38.0644314,0.564423947 36.7018266,7.42942424e-06 35.2810268,0 L5.35714286,0 C2.3984375,0 0,2.3984375 0,5.35714286 L0,44.6428571 C0,47.6015625 2.3984375,50 5.35714286,50 L44.6428571,50 C47.6015625,50 50,47.6015625 50,44.6428571 L50,14.7189732 C49.9999926,13.2981734 49.4355761,11.9355686 48.4309152,10.9309152 Z M30.5555556,5.55555556 L30.5555556,13.8888889 L16.6666667,13.8888889 L16.6666667,5.55555556 L30.5555556,5.55555556 Z M43.7815657,44.4444444 L6.21843434,44.4444444 C5.8523365,44.4444444 5.55555556,44.1476635 5.55555556,43.7815657 L5.55555556,6.21843434 C5.55555556,5.8523365 5.8523365,5.55555556 6.21843434,5.55555556 L10.8585859,5.55555556 L10.8585859,17.0454545 C10.8585859,18.5098643 12.0456913,19.6969697 13.510101,19.6969697 L32.9545455,19.6969697 C34.4189552,19.6969697 35.6060606,18.5098643 35.6060606,17.0454545 L35.6060606,5.98443813 L44.2503314,14.628709 C44.3746405,14.7530391 44.4444655,14.9216603 44.4444444,15.0974747 L44.4444444,43.7815657 C44.4444444,44.1476635 44.1476635,44.4444444 43.7815657,44.4444444 Z M23.6111111,22.2222222 C18.2502999,22.2222222 13.8888889,26.5836332 13.8888889,31.9444444 C13.8888889,37.3052557 18.2502999,41.6666667 23.6111111,41.6666667 C28.9719223,41.6666667 33.3333333,37.3052557 33.3333333,31.9444444 C33.3333333,26.5836332 28.9719223,22.2222222 23.6111111,22.2222222 Z M23.6111111,36.1111111 C21.3136111,36.1111111 19.4444444,34.2419444 19.4444444,31.9444444 C19.4444444,29.6469444 21.3136111,27.7777778 23.6111111,27.7777778 C25.9086111,27.7777778 27.7777778,29.6469444 27.7777778,31.9444444 C27.7777778,34.2419444 25.9086111,36.1111111 23.6111111,36.1111111 Z" id="Shape"></path>
        </g>
    </g>
</svg>