<?xml version="1.0" encoding="UTF-8"?>
<svg width="18px" height="18px" viewBox="0 0 18 18" version="1.1" xmlns="http://www.w3.org/2000/svg" xmlns:xlink="http://www.w3.org/1999/xlink">
    <!-- Generator: sketchtool 54.1 (76490) - https://sketchapp.com -->
    <title>A9ABCDE4-E855-448A-97A0-4D285C513166</title>
    <desc>Created with sketchtool.</desc>
    <g id="Room" stroke="none" stroke-width="1" fill="none" fill-rule="evenodd">
        <g id="Flowroom-Room---Play-Mode-v0.2" transform="translate(-877.000000, -771.000000)" fill="#FAFAFA" fill-rule="nonzero">
            <path d="M892.1875,783.375 C892.960941,783.375 893.623044,783.650388 894.173828,784.201172 C894.724612,784.751956 895,785.414059 895,786.1875 C895,786.960941 894.724612,787.623044 894.173828,788.173828 C893.623044,788.724612 892.960941,789 892.1875,789 C891.414059,789 890.751956,788.724612 890.201172,788.173828 C889.650388,787.623044 889.375,786.960941 889.375,786.1875 C889.375,786.070312 889.380859,785.958985 889.392578,785.853516 C889.404297,785.748046 889.427734,785.642579 889.462891,785.537109 L882.009766,781.740234 C881.751952,782.068361 881.432619,782.329101 881.051758,782.522461 C880.670897,782.715821 880.257815,782.8125 879.8125,782.8125 C879.039059,782.8125 878.376956,782.537112 877.826172,781.986328 C877.275388,781.435544 877,780.773441 877,780 C877,779.226559 877.275388,778.564456 877.826172,778.013672 C878.376956,777.462888 879.039059,777.1875 879.8125,777.1875 C880.222658,777.1875 880.606444,777.26953 880.963867,777.433594 C881.321291,777.597657 881.628905,777.82617 881.886719,778.119141 L889.445312,774.445312 C889.421875,774.339843 889.404297,774.234376 889.392578,774.128906 C889.380859,774.023437 889.375,773.917969 889.375,773.8125 C889.375,773.039059 889.650388,772.376956 890.201172,771.826172 C890.751956,771.275388 891.414059,771 892.1875,771 C892.960941,771 893.623044,771.275388 894.173828,771.826172 C894.724612,772.376956 895,773.039059 895,773.8125 C895,774.585941 894.724612,775.248044 894.173828,775.798828 C893.623044,776.349612 892.960941,776.625 892.1875,776.625 C891.718748,776.625 891.288088,776.519532 890.895508,776.308594 C890.502928,776.097655 890.177736,775.816408 889.919922,775.464844 L882.466797,779.085938 C882.513672,779.226563 882.551758,779.373046 882.581055,779.525391 C882.610352,779.677735 882.625,779.835937 882.625,780 C882.625,780.128907 882.616211,780.254882 882.598633,780.37793 C882.581055,780.500977 882.554688,780.621093 882.519531,780.738281 L889.9375,784.517578 C890.183595,784.166014 890.502928,783.887696 890.895508,783.682617 C891.288088,783.477538 891.718748,783.375 892.1875,783.375 Z M892.1875,772.125 C891.718748,772.125 891.320314,772.289061 890.992188,772.617188 C890.664061,772.945314 890.5,773.343748 890.5,773.8125 C890.5,774.281252 890.664061,774.679686 890.992188,775.007812 C891.320314,775.335939 891.718748,775.5 892.1875,775.5 C892.656252,775.5 893.054686,775.335939 893.382812,775.007812 C893.710939,774.679686 893.875,774.281252 893.875,773.8125 C893.875,773.343748 893.710939,772.945314 893.382812,772.617188 C893.054686,772.289061 892.656252,772.125 892.1875,772.125 Z M879.8125,781.6875 C880.281252,781.6875 880.679686,781.523439 881.007812,781.195312 C881.335939,780.867186 881.5,780.468752 881.5,780 C881.5,779.531248 881.335939,779.132814 881.007812,778.804688 C880.679686,778.476561 880.281252,778.3125 879.8125,778.3125 C879.343748,778.3125 878.945314,778.476561 878.617188,778.804688 C878.289061,779.132814 878.125,779.531248 878.125,780 C878.125,780.468752 878.289061,780.867186 878.617188,781.195312 C878.945314,781.523439 879.343748,781.6875 879.8125,781.6875 Z M892.1875,787.875 C892.656252,787.875 893.054686,787.710939 893.382812,787.382812 C893.710939,787.054686 893.875,786.656252 893.875,786.1875 C893.875,785.718748 893.710939,785.320314 893.382812,784.992188 C893.054686,784.664061 892.656252,784.5 892.1875,784.5 C891.718748,784.5 891.320314,784.664061 890.992188,784.992188 C890.664061,785.320314 890.5,785.718748 890.5,786.1875 C890.5,786.656252 890.664061,787.054686 890.992188,787.382812 C891.320314,787.710939 891.718748,787.875 892.1875,787.875 Z" id="î›"></path>
        </g>
    </g>
</svg>